PathFileType	4	(X/Y/Z)	TVC_16_BWA4_walk_RCNL2025.trc
DataRate	CameraRate	NumFrames	NumMarkers	Units	OrigDataRate	OrigDataStartFrame	OrigNumFrames
100	100	9	27	mm	100	1	947
Frame#	Time	R_Shoulder			L_Shoulder			C7			J_Notch			R_Elbow			L_Elbow			R_Wrist			L_Wrist			R_Asis			L_Asis			R_Psis			L_Psis			Sacral			Thoracic			Sternum			R_Thigh_Lateral			R_Knee_Lateral			R_Shank_Lateral			R_Ankle_Lateral			R_Heel			R_Toe			L_Thigh_Lateral			L_Knee_Lateral			L_Shank_Lateral			L_Ankle_Lateral			L_Heel			L_Toe		
		X1	Y1	Z1	X2	Y2	Z2	X3	Y3	Z3	X4	Y4	Z4	X5	Y5	Z5	X6	Y6	Z6	X7	Y7	Z7	X8	Y8	Z8	X9	Y9	Z9	X10	Y10	Z10	X11	Y11	Z11	X12	Y12	Z12	X13	Y13	Z13	X14	Y14	Z14	X15	Y15	Z15	X16	Y16	Z16	X17	Y17	Z17	X18	Y18	Z18	X19	Y19	Z19	X20	Y20	Z20	X21	Y21	Z21	X22	Y22	Z22	X23	Y23	Z23	X24	Y24	Z24	X25	Y25	Z25	X26	Y26	Z26	X27	Y27	Z27
1	0.00000000	-1820.838867	1278.008667	480.765564	-1810.500244	1289.676514	158.571381	-1863.310425	1348.967651	328.570801	-1758.634644	1190.492554	329.014587	-1928.162964	978.667542	546.933289	-1829.390747	967.310913	87.625031	-1870.500305	753.599884	551.433167	-1767.441284	774.383545	175.385521	-1871.333008	863.144836	424.177216	-1892.851318	882.027527	165.002731	-2046.138550	922.882568	361.526855	-2052.897461	922.530823	254.208878	-2049.518005	922.706696	307.867867	-1996.135620	1106.331421	308.519806	-1766.986328	1002.178101	300.659485	-1937.012573	588.818054	506.147217	-1909.438110	417.762573	409.164551	-1952.965332	261.978577	453.602844	-1999.192627	51.506649	362.679626	-2043.545166	47.887924	307.454285	-1874.249756	34.759758	336.327637	-1907.414429	598.992920	64.644135	-1853.246094	422.339081	147.070984	-1921.030273	286.269043	79.448730	-1974.893433	63.305248	145.145569	-2017.338135	61.343014	191.906235	-1841.189697	33.714138	176.271957
2	0.01000000	-1821.043213	1278.017212	481.261963	-1810.962402	1289.837402	159.060516	-1863.638794	1349.037231	329.131195	-1759.041138	1190.554321	329.423859	-1928.139648	978.636475	547.524597	-1829.745850	967.527771	87.935791	-1870.363159	753.598816	552.025146	-1767.516968	774.531525	175.267159	-1871.384155	863.111023	424.469391	-1893.172974	882.221008	165.247360	-2046.235962	922.817871	361.972565	-2053.074951	922.513672	254.662964	-2049.655457	922.665771	308.317764	-1996.381836	1106.392456	309.087372	-1767.207153	1002.296326	300.993988	-1936.998413	588.778687	506.408844	-1909.482910	417.740448	409.364502	-1953.028198	261.920807	453.744843	-1999.200317	51.477360	362.710907	-2043.554321	47.883087	307.476501	-1874.250000	34.755054	336.341431	-1907.263062	599.186768	64.844856	-1853.002075	422.503906	147.140747	-1920.873291	286.496368	79.502640	-1974.803711	63.540230	145.160370	-2017.243164	61.616032	191.936325	-1841.150513	33.718121	176.272781
3	0.02000000	-1821.316528	1278.029175	481.919434	-1811.579346	1290.066284	159.712250	-1864.080566	1349.130615	329.875885	-1759.592163	1190.634399	329.962677	-1928.098633	978.589905	548.303223	-1830.206665	967.818420	88.351555	-1870.159607	753.596619	552.801849	-1767.617798	774.731598	175.086639	-1871.452148	863.066162	424.858368	-1893.598755	882.478638	165.571243	-2046.366089	922.730103	362.563141	-2053.311279	922.488464	255.265137	-2049.838684	922.609283	308.914139	-1996.715942	1106.463867	309.839294	-1767.499634	1002.457520	301.433258	-1936.986328	588.722961	506.750153	-1909.548462	417.711090	409.622498	-1953.108643	261.843506	453.928253	-1999.210571	51.438492	362.750519	-2043.566406	47.874321	307.507141	-1874.250610	34.749569	336.357971	-1907.054199	599.453430	65.109749	-1852.663696	422.727203	147.232391	-1920.646118	286.800690	79.573746	-1974.681274	63.858921	145.180771	-2017.113647	61.986633	191.976898	-1841.097900	33.723507	176.274765
4	0.03000000	-1821.654541	1278.044678	482.724121	-1812.340454	1290.367188	160.515213	-1864.630615	1349.246338	330.790497	-1760.281982	1190.730347	330.617828	-1928.035034	978.525452	549.250000	-1830.757935	968.178650	88.865540	-1869.881409	753.592682	553.742493	-1767.740540	774.981934	174.835358	-1871.535278	863.011597	425.337280	-1894.118042	882.795349	165.967926	-2046.526733	922.619568	363.286011	-2053.601074	922.454041	256.002899	-2050.063904	922.536804	309.644455	-1997.135132	1106.538208	310.759705	-1767.857544	1002.661133	301.966095	-1936.980835	588.650330	507.161041	-1909.636353	417.675079	409.929199	-1953.203247	261.747803	454.146729	-1999.223389	51.390724	362.796631	-2043.581177	47.860378	307.546326	-1874.251953	34.743820	336.376068	-1906.786133	599.792908	65.432457	-1852.229736	423.006958	147.343948	-1920.343018	287.177032	79.660660	-1974.527222	64.258598	145.206650	-2016.950562	62.451759	192.027298	-1841.032715	33.730186	176.278229
5	0.04000000	-1822.048828	1278.063965	483.650482	-1813.223999	1290.739502	161.446732	-1865.276001	1349.381714	331.847412	-1761.093506	1190.839478	331.366516	-1927.945068	978.441345	550.331482	-1831.376709	968.599304	89.463005	-1869.523376	753.586304	554.811737	-1767.878235	775.277435	174.508965	-1871.629761	862.949585	425.892670	-1894.711304	883.160767	166.425735	-2046.712891	922.487854	364.117828	-2053.935059	922.409546	256.852570	-2050.323975	922.448700	310.485199	-1997.629883	1106.606445	311.819244	-1768.268799	1002.904175	302.573578	-1936.987183	588.561401	507.625214	-1909.747314	417.633423	410.270874	-1953.307617	261.636261	454.390778	-1999.238281	51.335281	362.846832	-2043.598145	47.840046	307.593628	-1874.254395	34.738396	336.394165	-1906.458496	600.200623	65.801559	-1851.705444	423.337158	147.472214	-1919.962769	287.614594	79.761047	-1974.344360	64.730637	145.237366	-2016.757080	63.001461	192.085907	-1840.956421	33.737862	176.283188
6	0.05000000	-1822.488892	1278.087036	484.668091	-1814.202515	1291.179321	162.479080	-1866.000488	1349.532837	333.013031	-1762.001953	1190.959961	332.182312	-1927.825562	978.336365	551.508301	-1832.037720	969.068909	90.124901	-1869.083008	753.576447	555.968048	-1768.020325	775.611542	174.107788	-1871.730713	862.883545	426.507965	-1895.353149	883.562073	166.931030	-2046.918091	922.336975	365.030273	-2054.302002	922.354309	257.785309	-2050.610046	922.345642	311.407791	-1998.187256	1106.659668	312.982727	-1768.719238	1003.182251	303.233826	-1937.010620	588.457825	508.124390	-1909.880859	417.587341	410.632538	-1953.417480	261.511993	454.650146	-1999.255005	51.273537	362.898651	-2043.617188	47.812233	307.648468	-1874.258057	34.733841	336.410828	-1906.069946	600.669312	66.203247	-1851.100586	423.709686	147.613983	-1919.507812	288.099762	79.872452	-1974.137085	65.263138	145.271744	-2016.538452	63.621822	192.150391	-1840.871460	33.746071	176.289291
7	0.06000000	-1822.964844	1278.113770	485.746948	-1815.248047	1291.678711	163.584396	-1866.786743	1349.696289	334.253815	-1762.978882	1191.091309	333.039825	-1927.675415	978.209534	552.741455	-1832.717041	969.575867	90.830811	-1868.559875	753.561981	557.170135	-1768.153625	775.977570	173.636719	-1871.831909	862.817261	427.166351	-1896.017090	883.986023	167.470413	-2047.135376	922.168762	365.994690	-2054.689697	922.287720	258.771729	-2050.912537	922.228241	312.383209	-1998.791870	1106.689819	314.215393	-1769.194458	1003.490662	303.925720	-1937.055908	588.342285	508.641113	-1910.034790	417.537872	411.000671	-1953.529419	261.378265	454.915619	-1999.273071	51.206715	362.949982	-2043.637817	47.776115	307.710052	-1874.263672	34.730587	336.425079	-1905.615967	601.190674	66.623451	-1850.427490	424.115814	147.766739	-1918.984375	288.618378	79.992683	-1973.910034	65.842995	145.308151	-2016.300293	64.297432	192.217896	-1840.780273	33.754208	176.295685
8	0.07000000	-1823.468140	1278.144165	486.861115	-1816.335083	1292.227417	164.737778	-1867.619873	1349.868896	335.540283	-1763.995117	1191.235474	333.917999	-1927.494263	978.060608	553.997131	-1833.395874	970.109863	91.560974	-1867.955078	753.541626	558.381470	-1768.263489	776.370178	173.104454	-1871.927002	862.754761	427.852264	-1896.678833	884.421143	168.031891	-2047.358154	921.984985	366.985199	-2055.086670	922.209656	259.785095	-2051.222412	922.097321	313.385147	-1999.428345	1106.691650	315.487122	-1769.681641	1003.825012	304.631073	-1937.126587	588.217957	509.161133	-1910.206177	417.485992	411.365082	-1953.641235	261.238037	455.180115	-1999.291748	51.135796	362.999573	-2043.660156	47.731285	307.777588	-1874.271606	34.728924	336.436340	-1905.088013	601.756287	67.049515	-1849.699585	424.547516	147.929108	-1918.401489	289.157928	80.120018	-1973.667725	66.457550	145.344498	-2016.048340	65.013214	192.285324	-1840.684937	33.761574	176.301117
9	0.08000000	-1823.992798	1278.177979	487.990479	-1817.442993	1292.811768	165.918777	-1868.487061	1350.048096	336.849121	-1765.023071	1191.395752	334.801697	-1927.283569	977.889648	555.248596	-1834.060791	970.662903	92.297539	-1867.270752	753.514496	559.572479	-1768.335510	776.785553	172.522301	-1872.009277	862.699707	428.552032	-1897.318359	884.859070	168.605042	-2047.580200	921.787109	367.980499	-2055.483154	922.120239	260.803101	-2051.531677	921.953674	314.391800	-2000.081421	1106.662109	316.774628	-1770.171143	1004.181274	305.335876	-1937.223877	588.088562	509.674042	-1910.390503	417.432312	411.719482	-1953.752441	261.093964	455.439117	-1999.310669	51.061531	363.046906	-2043.683960	47.677845	307.850098	-1874.282227	34.728996	336.444824	-1904.473755	602.358276	67.471230	-1848.930908	424.998077	148.101028	-1917.770752	289.708588	80.253120	-1973.413452	67.095604	145.378296	-2015.787964	65.755562	192.349426	-1840.587402	33.767464	176.304016
